<svg width="160" height="449" viewBox="0 0 160 449" fill="none" xmlns="http://www.w3.org/2000/svg">
<path d="M40.2352 220.037L40.1809 220.094L111.134 294.172C120.828 304.294 126.274 318.022 126.274 332.336C126.274 346.651 120.828 360.379 111.133 370.501L59.4421 424.468L82.8291 448.885L134.52 394.918C150.228 378.508 159.133 356.314 159.318 333.115C159.502 309.916 150.952 287.57 135.507 270.891C135.163 270.52 134.872 270.118 134.522 269.753L123.527 258.273L74.3323 206.912L3.37455 132.83C-6.32063 122.707 -11.767 108.978 -11.767 94.6632C-11.767 80.348 -6.32063 66.6191 3.37455 56.4965L55.0658 2.52897L31.6793 -21.8877L-20.012 32.0798C-35.7131 48.483 -44.618 70.6666 -44.8094 93.8558C-45.0007 117.045 -36.4634 139.385 -21.0354 156.069L-20.6586 156.462L40.2352 220.037Z" fill="white"/>
</svg>
